<svg width="154" height="39" viewBox="0 0 154 39" fill="none" xmlns="http://www.w3.org/2000/svg">
<path d="M24.1937 3.10254C31.9355 7.30733 39.6775 12.0361 39.6775 12.0361C39.6775 12.0361 39.4891 16.0029 34.3549 32.0069C34.3549 32.0069 24.8655 28.6158 10.6454 32.0069C7.44657 16.0029 6.29053 12.0361 6.29053 12.0361C6.29053 12.0361 15.4842 7.30682 24.1937 3.10254Z" fill="#FA7718"/>
<path d="M36.8396 1C36.8396 1 27.414 13.8469 24.6775 12.4946" stroke="white" stroke-width="2"/>
<path d="M39.6774 3.60025C39.6774 3.60025 29.3399 15.5485 26.7118 13.9523" stroke="white" stroke-width="2"/>
<path d="M42.5187 19.109C42.5187 19.109 28.1879 19.434 28.073 16.6715" stroke="white" stroke-width="2"/>
<path d="M41.5604 23.9672C41.5604 23.9672 27.5886 22.6188 27.8011 19.8032" stroke="white" stroke-width="2"/>
<path d="M2.14737 16.8182C2.14737 16.8182 17.1365 19.7115 18.3799 16.7125" stroke="white" stroke-width="2"/>
<path d="M1.59024 20.8329C1.59024 20.8329 16.7198 22.3884 17.7319 19.2835" stroke="white" stroke-width="2"/>
<path d="M12.8341 1.76352C12.8341 1.76352 18.8397 12.2388 21.3679 12.0386" stroke="white" stroke-width="2"/>
<path d="M9.48323 3.80281C9.48323 3.80281 16.4005 13.9257 18.8744 13.5436" stroke="white" stroke-width="2"/>
<path d="M24.3163 36.3375C24.3163 36.3375 23.8553 22.9297 24.12 21.2878" stroke="white" stroke-width="2"/>
<path d="M18.8633 35.8376C18.8633 35.8376 22.2508 23.1516 22.194 21.5" stroke="white" stroke-width="2"/>
<path d="M21.9928 23.0736L19.3547 34.8389C19.3547 34.8389 20.0151 34.8389 20.0151 34.1809C20.0151 33.1292 21.2801 27.664 21.9928 23.0736Z" stroke="#59595B" stroke-linecap="round"/>
<path d="M24.1906 23.6224L24.6794 35.4231C24.6794 35.4231 25.2979 35.5215 25.1297 34.8894C24.8609 33.8791 24.6792 28.2472 24.1906 23.6224Z" stroke="#59595B" stroke-linecap="round"/>
<path d="M9.15603 4.7083C15.2326 12.1612 16.9652 13.118 16.9652 13.118C11.9593 9.13574 9.12937 5.14097 9.12937 5.14097C8.88525 4.87172 8.43174 5.19193 9.15603 4.7083Z" stroke="#59595B" stroke-linecap="round"/>
<path d="M12.6171 2.22042C17.7306 10.3741 19.3282 11.5459 19.3282 11.5459C14.8578 6.95832 12.5391 2.64398 12.5391 2.64398C12.33 2.34619 11.8437 2.60273 12.6171 2.22042Z" stroke="#59595B" stroke-linecap="round"/>
<path d="M1.93436 21.6074C13.3054 22.1394 15.5996 21.4711 15.5996 21.4711C7.98287 22.5473 2.85185 22.1395 2.85185 22.1395C2.41952 22.1393 1.93447 22.1395 1.93436 21.6074Z" stroke="#59595B" stroke-linecap="round"/>
<path d="M2.41944 17.5545C6.72649 18.1437 9.7444 18.4034 11.83 18.4994C13.1569 18.4935 14.6025 18.4584 16.1427 18.3795C16.1427 18.3795 15.2125 18.6549 11.83 18.4994C6.54699 18.5225 3.14534 18.0804 3.14534 18.0804C2.66155 17.7814 2.41954 18.0804 2.41944 17.5545Z" fill="#59595B"/>
<path d="M2.41944 17.5545C13.7118 19.0993 16.1427 18.3795 16.1427 18.3795C8.47031 18.7725 3.14534 18.0804 3.14534 18.0804C2.66155 17.7814 2.41954 18.0804 2.41944 17.5545Z" stroke="#59595B" stroke-linecap="round"/>
<path d="M39.9643 4.25115C37.9083 6.54217 36.2507 8.26279 34.9265 9.55393C33.5988 10.6963 32.0182 12.0003 30.214 13.3926C30.214 13.3926 31.3635 13.0279 34.9265 9.55393C38.0024 6.90737 39.7216 5.12805 39.7216 5.12805C39.9129 4.58387 40.2663 4.66218 39.9643 4.25115Z" fill="#59595B"/>
<path d="M39.9643 4.25115C32.3766 12.7065 30.214 13.3926 30.214 13.3926C36.1979 8.77503 39.7216 5.12805 39.7216 5.12805C39.9129 4.58387 40.2663 4.66218 39.9643 4.25115Z" stroke="#59595B" stroke-linecap="round"/>
<path d="M37.2553 1.70993C35.3388 4.13942 33.7862 5.97196 32.5409 7.35266C31.2834 8.58519 29.7831 9.99659 28.0648 11.5116C28.0648 11.5116 29.1904 11.0677 32.5409 7.35266C35.4543 4.49732 37.0648 2.60193 37.0648 2.60193C37.2236 2.04554 37.5809 2.09908 37.2553 1.70993Z" fill="#59595B"/>
<path d="M37.2553 1.70993C30.1825 10.6763 28.0648 11.5116 28.0648 11.5116C33.7637 6.48682 37.0648 2.60193 37.0648 2.60193C37.2236 2.04554 37.5809 2.09908 37.2553 1.70993Z" stroke="#59595B" stroke-linecap="round"/>
<path d="M42.4689 19.7292C39.6184 19.8078 37.3991 19.7807 35.6782 19.6993C34.0477 19.5089 32.1417 19.2422 30.0261 18.8689C30.0261 18.8689 31.048 19.4804 35.6782 19.6993C39.4555 20.1404 41.7539 20.1723 41.7539 20.1723C42.2257 19.9282 42.4211 20.2524 42.4689 19.7292Z" fill="#59595B"/>
<path d="M42.4689 19.7292C31.9487 20.0193 30.0261 18.8689 30.0261 18.8689C37.0429 20.107 41.7539 20.1723 41.7539 20.1723C42.2257 19.9282 42.4211 20.2524 42.4689 19.7292Z" stroke="#59595B" stroke-linecap="round"/>
<path d="M41.3738 24.7748C38.5494 24.4668 36.3606 24.1394 34.6704 23.8256C33.0821 23.4159 31.2304 22.8933 29.184 22.2364C29.184 22.2364 30.1226 22.9814 34.6704 23.8256C38.3501 24.7747 40.6165 25.1176 40.6165 25.1176C41.1107 24.9393 41.2662 25.2874 41.3738 24.7748Z" fill="#59595B"/>
<path d="M41.3738 24.7748C30.9499 23.6381 29.184 22.2364 29.184 22.2364C35.9712 24.4149 40.6165 25.1176 40.6165 25.1176C41.1107 24.9393 41.2662 25.2874 41.3738 24.7748Z" stroke="#59595B" stroke-linecap="round"/>
<path d="M62.8577 11.0488C62.8577 11.6999 62.7437 12.3379 62.5159 12.9629C62.288 13.5814 61.9625 14.1022 61.5393 14.5254C60.9599 15.0983 60.3121 15.5312 59.5959 15.8242C58.8863 16.1172 58.0009 16.2637 56.9397 16.2637H54.6057V21H50.8557V6.45898H57.0276C57.9521 6.45898 58.7301 6.54036 59.3616 6.70312C59.9996 6.85938 60.5627 7.09701 61.051 7.41602C61.637 7.80013 62.0829 8.29167 62.3889 8.89062C62.7014 9.48958 62.8577 10.209 62.8577 11.0488ZM58.9807 11.1367C58.9807 10.7266 58.87 10.375 58.6487 10.082C58.4273 9.78255 58.1702 9.57422 57.8772 9.45703C57.4866 9.30078 57.1057 9.21615 56.7346 9.20312C56.3635 9.18359 55.8687 9.17383 55.2502 9.17383H54.6057V13.5293H55.6799C56.318 13.5293 56.842 13.4902 57.2522 13.4121C57.6689 13.334 58.0172 13.1777 58.2971 12.9434C58.538 12.735 58.7105 12.4876 58.8147 12.2012C58.9254 11.9082 58.9807 11.5534 58.9807 11.1367ZM73.678 10.9121C73.678 10.5475 73.6031 10.235 73.4534 9.97461C73.3036 9.71419 73.0465 9.50911 72.6819 9.35938C72.428 9.25521 72.1318 9.19336 71.7932 9.17383C71.4547 9.14779 71.0608 9.13477 70.6116 9.13477H69.2542V13.0508H70.4065C71.0055 13.0508 71.5068 13.0215 71.9104 12.9629C72.314 12.9043 72.6526 12.7708 72.926 12.5625C73.1864 12.3607 73.3752 12.1393 73.4924 11.8984C73.6161 11.651 73.678 11.3223 73.678 10.9121ZM79.5276 21H74.9475L70.9827 15.668H69.2542V21H65.5237V6.45898H71.8127C72.6721 6.45898 73.4111 6.50781 74.0295 6.60547C74.648 6.70312 75.2275 6.91471 75.7678 7.24023C76.3147 7.56576 76.7476 7.98893 77.0667 8.50977C77.3922 9.02409 77.5549 9.67188 77.5549 10.4531C77.5549 11.5273 77.3043 12.403 76.803 13.0801C76.3082 13.7572 75.5986 14.3203 74.6741 14.7695L79.5276 21ZM95.3088 13.7344C95.3088 16.0521 94.6448 17.8945 93.3167 19.2617C91.9885 20.6224 90.1526 21.3027 87.8088 21.3027C85.4716 21.3027 83.6389 20.6224 82.3108 19.2617C80.9827 17.8945 80.3186 16.0521 80.3186 13.7344C80.3186 11.3971 80.9827 9.55143 82.3108 8.19727C83.6389 6.83659 85.4716 6.15625 87.8088 6.15625C90.1396 6.15625 91.9722 6.83659 93.3069 8.19727C94.6415 9.55143 95.3088 11.3971 95.3088 13.7344ZM90.3381 17.416C90.7027 16.9733 90.9729 16.4525 91.1487 15.8535C91.3245 15.248 91.4124 14.5384 91.4124 13.7246C91.4124 12.8522 91.3114 12.11 91.1096 11.498C90.9078 10.8861 90.6441 10.3913 90.3186 10.0137C89.9866 9.62305 89.6025 9.33984 89.1663 9.16406C88.7366 8.98828 88.2874 8.90039 87.8186 8.90039C87.3433 8.90039 86.8941 8.98503 86.4709 9.1543C86.0543 9.32357 85.6702 9.60352 85.3186 9.99414C84.9931 10.3587 84.7262 10.8633 84.5178 11.5078C84.316 12.1458 84.2151 12.888 84.2151 13.7344C84.2151 14.6003 84.3127 15.3392 84.5081 15.9512C84.7099 16.5566 84.9736 17.0514 85.2991 17.4355C85.6246 17.8197 86.0055 18.1029 86.4417 18.2852C86.8778 18.4674 87.3368 18.5586 87.8186 18.5586C88.3004 18.5586 88.7594 18.4674 89.1956 18.2852C89.6318 18.0964 90.0126 17.8066 90.3381 17.416ZM106.93 21H105.094V11.6348H101.022C101.002 12.1751 100.983 12.696 100.963 13.1973C100.944 13.6986 100.924 14.151 100.905 14.5547C100.859 15.6419 100.784 16.5111 100.68 17.1621C100.576 17.8066 100.439 18.3438 100.27 18.7734C100.114 19.1771 99.9377 19.5059 99.7424 19.7598C99.5536 20.0072 99.3486 20.2318 99.1272 20.4336C98.9058 20.6289 98.6584 20.7754 98.385 20.873C98.1181 20.9707 97.8251 21.0195 97.5061 21.0195C97.3954 21.0195 97.2327 21.0163 97.0178 21.0098C96.8095 21.0033 96.6728 21 96.6077 21V19.3984H96.7053C96.7574 19.3984 96.8323 19.4017 96.9299 19.4082C97.0276 19.4147 97.109 19.418 97.1741 19.418C97.3303 19.418 97.4898 19.3952 97.6526 19.3496C97.8219 19.304 97.9651 19.2194 98.0823 19.0957C98.4143 18.7702 98.6812 18.2201 98.8831 17.4453C99.0849 16.6706 99.2183 15.5508 99.2834 14.0859C99.3095 13.5521 99.3323 12.9206 99.3518 12.1914C99.3778 11.4557 99.4006 10.7559 99.4202 10.0918H106.93V21ZM117.272 17.6504C117.272 17.3184 117.213 17.0286 117.096 16.7812C116.985 16.5273 116.8 16.3223 116.539 16.166C116.266 16.0033 115.953 15.9056 115.602 15.873C115.257 15.8405 114.759 15.8242 114.108 15.8242H112.389V19.5352H114.069C114.72 19.5352 115.224 19.5091 115.582 19.457C115.94 19.3984 116.25 19.291 116.51 19.1348C116.777 18.9655 116.969 18.7669 117.086 18.5391C117.21 18.3047 117.272 18.0085 117.272 17.6504ZM119.166 17.6211C119.166 18.1484 119.059 18.627 118.844 19.0566C118.636 19.4863 118.349 19.8346 117.985 20.1016C117.555 20.4271 117.096 20.6582 116.608 20.7949C116.119 20.9316 115.491 21 114.723 21H110.553V10.0918H112.389V14.3398H114.772C115.592 14.3398 116.227 14.3822 116.676 14.4668C117.132 14.5514 117.584 14.7598 118.033 15.0918C118.411 15.3717 118.694 15.7298 118.883 16.166C119.072 16.6022 119.166 17.0872 119.166 17.6211ZM120.992 10.0918H122.828V21H120.992V10.0918ZM140.133 21H137.916L134.42 16.0195H133.531V21H131.715V16.0195H130.924L127.272 21H125.153L129.362 15.2871C129.043 15.1178 128.759 14.877 128.512 14.5645C128.271 14.252 128.05 13.7799 127.848 13.1484C127.672 12.5951 127.464 12.2109 127.223 11.9961C126.982 11.7812 126.588 11.6738 126.041 11.6738H125.524V10.0918H126.198C127.005 10.0918 127.653 10.2546 128.141 10.5801C128.629 10.9056 129.02 11.4753 129.313 12.2891C129.371 12.4583 129.443 12.6536 129.528 12.875C129.619 13.0898 129.697 13.2721 129.762 13.4219C129.977 13.9167 130.25 14.2682 130.582 14.4766C130.921 14.6784 131.298 14.7923 131.715 14.8184V10.0918H133.531V14.8184C133.948 14.7923 134.326 14.6751 134.664 14.4668C135.009 14.2585 135.289 13.9102 135.504 13.4219C135.576 13.2591 135.654 13.0703 135.739 12.8555C135.83 12.6406 135.901 12.4518 135.953 12.2891C136.24 11.4883 136.624 10.9219 137.106 10.5898C137.587 10.2578 138.235 10.0918 139.049 10.0918H139.723V11.6738H139.205C138.652 11.6738 138.252 11.7878 138.004 12.0156C137.763 12.2435 137.561 12.6211 137.399 13.1484C137.216 13.7279 136.998 14.1803 136.744 14.5059C136.497 14.8249 136.227 15.0658 135.934 15.2285L140.133 21ZM151.598 21H149.781V12.8066L144.069 21H142.408V10.0918H144.225V18.168L149.879 10.0918H151.598V21Z" fill="white"/>
<path d="M55.3677 33H54.4009V26.5889H51.7739C51.7642 26.9567 51.7495 27.318 51.73 27.6729C51.7137 28.0244 51.7007 28.3385 51.6909 28.6152C51.6649 29.3118 51.6209 29.8848 51.5591 30.334C51.5005 30.7832 51.424 31.1527 51.3296 31.4424C51.2352 31.7354 51.1278 31.9697 51.0073 32.1455C50.8901 32.318 50.755 32.4743 50.6021 32.6143C50.4458 32.7575 50.2847 32.86 50.1187 32.9219C49.9559 32.9837 49.7638 33.0146 49.5425 33.0146C49.4741 33.0146 49.3911 33.0114 49.2935 33.0049C49.1958 33.0016 49.1274 33 49.0884 33V32.0625H49.1567C49.1893 32.0658 49.23 32.069 49.2788 32.0723C49.3276 32.0755 49.3765 32.0771 49.4253 32.0771C49.5425 32.0771 49.6532 32.0592 49.7573 32.0234C49.8615 31.9876 49.9494 31.9323 50.021 31.8574C50.2521 31.6263 50.4214 31.2454 50.5288 30.7148C50.6395 30.1842 50.7176 29.429 50.7632 28.4492C50.7795 28.1302 50.7957 27.707 50.812 27.1797C50.8315 26.6523 50.8478 26.1689 50.8608 25.7295H55.3677V33ZM61.8995 30.7686C61.8995 30.5244 61.8588 30.3096 61.7774 30.124C61.6961 29.9385 61.5691 29.7887 61.3966 29.6748C61.2175 29.5544 61.0108 29.4811 60.7765 29.4551C60.5421 29.429 60.2117 29.416 59.7853 29.416H58.4376V32.1748H59.7608C60.1938 32.1748 60.5258 32.1536 60.7569 32.1113C60.9913 32.069 61.1964 31.9876 61.3722 31.8672C61.5545 31.7402 61.6879 31.5921 61.7726 31.4229C61.8572 31.2503 61.8995 31.0322 61.8995 30.7686ZM62.9103 30.749C62.9103 31.1006 62.8403 31.4196 62.7003 31.7061C62.5636 31.9925 62.3797 32.2253 62.1485 32.4043C61.8751 32.6191 61.5821 32.7721 61.2696 32.8633C60.9571 32.9544 60.5535 33 60.0587 33H57.4708V25.7295H58.4376V28.5811H60.088C60.5828 28.5811 60.9864 28.6104 61.2989 28.6689C61.6114 28.7243 61.906 28.8594 62.1827 29.0742C62.4301 29.2663 62.6124 29.5039 62.7296 29.7871C62.85 30.0703 62.9103 30.391 62.9103 30.749ZM64.7218 33H63.755V25.7295H64.7218V33ZM75.4235 33H74.2419L71.6833 29.6748H71.1706V33H70.2136V29.6748H69.6911L67.1325 33H66.0095L68.905 29.2598C68.6185 29.071 68.3907 28.8496 68.2214 28.5957C68.0521 28.3418 67.9154 28.0439 67.8112 27.7021C67.7494 27.5036 67.6875 27.3343 67.6257 27.1943C67.5671 27.0511 67.4922 26.9339 67.4011 26.8428C67.3132 26.7549 67.2009 26.6914 67.0642 26.6523C66.9307 26.6133 66.7663 26.5938 66.571 26.5938H66.278V25.7295H66.6247C67.1683 25.7295 67.585 25.8337 67.8747 26.042C68.1644 26.2471 68.4086 26.6312 68.6071 27.1943C68.6429 27.292 68.6853 27.4124 68.7341 27.5557C68.7829 27.6989 68.8317 27.8291 68.8806 27.9463C69.0238 28.2881 69.211 28.542 69.4421 28.708C69.6765 28.874 69.9336 28.9701 70.2136 28.9961V25.7295H71.1706V29.0059C71.4701 28.9863 71.737 28.8968 71.9714 28.7373C72.209 28.5745 72.4027 28.3109 72.5524 27.9463C72.611 27.8031 72.6631 27.6631 72.7087 27.5264C72.7575 27.3864 72.7966 27.2757 72.8259 27.1943C73.0212 26.6344 73.2653 26.2503 73.5583 26.042C73.8545 25.8337 74.2712 25.7295 74.8083 25.7295H75.155V26.5938H74.862C74.6472 26.5938 74.4779 26.6133 74.3542 26.6523C74.2338 26.6882 74.1247 26.7516 74.0271 26.8428C73.9326 26.9307 73.8545 27.0495 73.7927 27.1992C73.7341 27.3457 73.6739 27.5133 73.612 27.7021C73.4753 28.1351 73.3044 28.4622 73.0993 28.6836C72.8975 28.9017 72.6957 29.0742 72.4938 29.2012L75.4235 33ZM82.2776 33H81.3108V29.4404H77.6829V33H76.7161V25.7295H77.6829V28.5811H81.3108V25.7295H82.2776V33ZM88.8144 30.7686C88.8144 30.5244 88.7737 30.3096 88.6923 30.124C88.6109 29.9385 88.484 29.7887 88.3114 29.6748C88.1324 29.5544 87.9257 29.4811 87.6913 29.4551C87.4569 29.429 87.1265 29.416 86.7001 29.416H85.3524V32.1748H86.6757C87.1086 32.1748 87.4407 32.1536 87.6718 32.1113C87.9062 32.069 88.1112 31.9876 88.287 31.8672C88.4693 31.7402 88.6028 31.5921 88.6874 31.4229C88.772 31.2503 88.8144 31.0322 88.8144 30.7686ZM89.8251 30.749C89.8251 31.1006 89.7551 31.4196 89.6151 31.7061C89.4784 31.9925 89.2945 32.2253 89.0634 32.4043C88.7899 32.6191 88.497 32.7721 88.1845 32.8633C87.872 32.9544 87.4683 33 86.9735 33H84.3856V25.7295H85.3524V28.5811H87.0028C87.4976 28.5811 87.9013 28.6104 88.2138 28.6689C88.5263 28.7243 88.8209 28.8594 89.0976 29.0742C89.345 29.2663 89.5272 29.5039 89.6444 29.7871C89.7649 30.0703 89.8251 30.391 89.8251 30.749ZM91.6366 33H90.6698V25.7295H91.6366V33ZM99.2964 33H98.3345V27.1748L94.7212 33H93.7446V25.7295H94.7065V31.4668L98.2759 25.7295H99.2964V33ZM98.4126 23.5518C98.3963 24.0921 98.2238 24.499 97.895 24.7725C97.5695 25.0459 97.1333 25.1826 96.5864 25.1826C96.0396 25.1826 95.6017 25.0459 95.2729 24.7725C94.9474 24.499 94.7765 24.0921 94.7603 23.5518H95.6489C95.6554 23.9163 95.7368 24.18 95.8931 24.3428C96.0493 24.5023 96.2804 24.582 96.5864 24.582C96.8957 24.582 97.1268 24.5023 97.2798 24.3428C97.436 24.1833 97.5174 23.9196 97.5239 23.5518H98.4126ZM110.915 33H109.675L106.72 29.6846H106.061V33H105.094V25.7295H106.061V28.9912C106.227 28.988 106.383 28.9717 106.53 28.9424C106.676 28.9131 106.815 28.8577 106.945 28.7764C107.075 28.7015 107.204 28.5957 107.331 28.459C107.458 28.319 107.57 28.1481 107.668 27.9463C107.71 27.8584 107.759 27.7477 107.814 27.6143C107.873 27.4808 107.931 27.3408 107.99 27.1943C108.215 26.654 108.477 26.2747 108.776 26.0566C109.079 25.8385 109.523 25.7295 110.109 25.7295H110.495V26.5938H110.09C109.865 26.5938 109.689 26.6149 109.562 26.6572C109.435 26.6963 109.321 26.763 109.22 26.8574C109.126 26.9421 109.043 27.056 108.971 27.1992C108.903 27.3424 108.831 27.5101 108.757 27.7021C108.587 28.1318 108.415 28.4476 108.239 28.6494C108.066 28.8512 107.834 29.027 107.541 29.1768L110.915 33ZM117.544 33H116.577V26.5889H113.95C113.941 26.9567 113.926 27.318 113.907 27.6729C113.89 28.0244 113.877 28.3385 113.867 28.6152C113.841 29.3118 113.797 29.8848 113.736 30.334C113.677 30.7832 113.601 31.1527 113.506 31.4424C113.412 31.7354 113.304 31.9697 113.184 32.1455C113.067 32.318 112.932 32.4743 112.779 32.6143C112.622 32.7575 112.461 32.86 112.295 32.9219C112.132 32.9837 111.94 33.0146 111.719 33.0146C111.651 33.0146 111.568 33.0114 111.47 33.0049C111.372 33.0016 111.304 33 111.265 33V32.0625H111.333C111.366 32.0658 111.407 32.069 111.455 32.0723C111.504 32.0755 111.553 32.0771 111.602 32.0771C111.719 32.0771 111.83 32.0592 111.934 32.0234C112.038 31.9876 112.126 31.9323 112.198 31.8574C112.429 31.6263 112.598 31.2454 112.705 30.7148C112.816 30.1842 112.894 29.429 112.94 28.4492C112.956 28.1302 112.972 27.707 112.989 27.1797C113.008 26.6523 113.024 26.1689 113.037 25.7295H117.544V33ZM124.794 25.7295L122.03 31.8477C121.919 32.0951 121.788 32.2985 121.635 32.458C121.485 32.6175 121.322 32.7412 121.146 32.8291C120.977 32.9105 120.813 32.9658 120.653 32.9951C120.497 33.0212 120.346 33.0342 120.199 33.0342C120.069 33.0342 119.911 33.0277 119.725 33.0146C119.54 33.0016 119.421 32.9935 119.369 32.9902V32.0869H119.437C119.486 32.0934 119.568 32.1048 119.682 32.1211C119.795 32.1341 119.926 32.1406 120.072 32.1406C120.137 32.1406 120.228 32.1357 120.346 32.126C120.463 32.1162 120.567 32.0934 120.658 32.0576C120.762 32.0186 120.865 31.9567 120.966 31.8721C121.07 31.7874 121.158 31.6637 121.229 31.501L121.405 31.1152L118.7 25.7295H119.769L121.893 30.0166L123.798 25.7295H124.794ZM131.438 30.749C131.438 31.1006 131.368 31.4196 131.228 31.7061C131.091 31.9925 130.907 32.2253 130.676 32.4043C130.403 32.6191 130.11 32.7721 129.797 32.8633C129.485 32.9544 129.081 33 128.586 33H125.95V25.7295H130.818V26.5889H126.917V28.5811H128.616C129.111 28.5811 129.514 28.6104 129.827 28.6689C130.139 28.7243 130.434 28.8594 130.71 29.0742C130.958 29.2663 131.14 29.5039 131.257 29.7871C131.378 30.0703 131.438 30.391 131.438 30.749ZM130.427 30.7686C130.427 30.5244 130.387 30.3096 130.305 30.124C130.224 29.9385 130.097 29.7887 129.924 29.6748C129.745 29.5544 129.539 29.4811 129.304 29.4551C129.07 29.429 128.739 29.416 128.313 29.416H126.917V32.1748H128.289C128.722 32.1748 129.054 32.1536 129.285 32.1113C129.519 32.069 129.724 31.9876 129.9 31.8672C130.082 31.7402 130.216 31.5921 130.3 31.4229C130.385 31.2503 130.427 31.0322 130.427 30.7686Z" fill="white"/>
</svg>
