<?xml version="1.0" standalone="no"?>
<!DOCTYPE svg PUBLIC "-//W3C//DTD SVG 20010904//EN"
 "http://www.w3.org/TR/2001/REC-SVG-20010904/DTD/svg10.dtd">
<svg version="1.0" xmlns="http://www.w3.org/2000/svg"
 width="260.000000pt" height="260.000000pt" viewBox="0 0 260.000000 260.000000"
 preserveAspectRatio="xMidYMid meet">
<metadata>
Created by potrace 1.14, written by Peter Selinger 2001-2017
</metadata>
<g transform="translate(0.000000,260.000000) scale(0.100000,-0.100000)"
fill="#000000" stroke="none">
<path d="M392 2584 c-129 -34 -260 -131 -316 -233 l-27 -50 23 -31 c25 -34 31
-36 137 -45 92 -8 121 -19 121 -45 0 -13 -9 -22 -27 -26 -16 -3 -48 -12 -73
-21 -25 -8 -87 -17 -137 -20 l-93 -6 0 -43 c0 -31 4 -44 14 -44 8 0 75 -31
150 -69 75 -38 136 -65 136 -60 0 5 32 9 71 9 59 0 70 -3 65 -15 -4 -11 1 -15
19 -15 14 0 25 6 25 13 0 8 17 12 51 13 40 1 49 -2 45 -13 -4 -8 -6 -17 -6
-19 0 -3 -4 -3 -8 0 -7 4 -122 -17 -166 -31 -19 -5 -18 -7 8 -30 l28 -24 -18
-37 c-10 -20 -19 -40 -20 -44 -1 -5 -2 -10 -3 -13 0 -2 -39 20 -85 50 -46 30
-121 71 -167 91 -46 20 -96 43 -112 51 l-27 14 0 -125 0 -124 28 -6 c15 -3 70
-13 122 -21 114 -19 202 -45 213 -62 6 -10 13 -10 28 -3 11 6 24 8 30 5 10 -7
38 -12 97 -19 l33 -4 -4 74 -4 74 56 -53 c31 -28 75 -69 99 -89 23 -21 42 -42
42 -48 0 -5 -13 -25 -30 -43 -27 -31 -28 -36 -14 -48 12 -10 20 -10 35 -1 26
16 24 10 -11 -40 -36 -52 -85 -162 -68 -152 13 8 -1 -11 -70 -94 l-32 -40 36
-30 c36 -30 36 -30 13 -37 -26 -8 -99 -82 -99 -100 0 -6 13 -24 29 -39 22 -21
35 -26 53 -21 18 5 20 4 8 -4 -8 -6 -22 -11 -32 -11 -9 0 -18 -5 -20 -11 -3
-8 -15 -6 -41 4 -44 19 -47 39 -12 87 13 18 22 38 18 43 -3 6 -1 7 5 3 6 -3
13 -2 17 4 7 11 -39 25 -54 15 -6 -3 -11 -1 -11 6 0 9 -4 9 -15 -1 -15 -12
-75 -5 -75 9 0 8 -81 16 -272 28 l-98 5 0 -129 0 -129 118 -13 c105 -11 136
-10 294 8 98 12 205 21 239 21 51 0 60 3 55 16 -4 10 -2 13 7 7 20 -12 78 -14
130 -3 28 6 55 6 65 1 11 -5 26 -3 44 9 26 15 27 17 10 34 -16 17 -16 18 6 7
26 -14 52 -3 75 33 15 23 15 26 -14 70 -17 25 -45 58 -62 72 -25 21 -27 25
-11 20 14 -4 27 -1 37 8 8 8 18 12 23 8 7 -7 -22 44 -54 95 -8 13 -21 23 -29
23 -11 0 -10 6 6 26 27 34 27 39 -8 83 -28 35 -61 93 -61 107 0 3 7 4 15 0 9
-3 24 3 36 15 l20 20 73 -21 c76 -21 132 -25 154 -11 10 6 -2 22 -44 60 -52
48 -56 54 -46 77 13 27 8 31 -15 9 -13 -14 -22 -9 -86 47 -40 34 -73 63 -74
63 -2 1 -4 14 -5 28 -3 30 -8 33 -26 15 -16 -16 -36 3 -51 52 -12 42 -26 50
-45 26 -9 -12 -21 -9 -73 22 -42 25 -62 43 -63 57 0 17 -2 18 -11 5 -9 -12
-10 -12 -5 3 3 10 6 21 6 23 0 3 5 2 10 -1 6 -3 10 -1 10 5 0 8 51 11 173 10
94 -1 533 -1 975 -1 l804 1 -3 118 c-1 64 -8 146 -15 181 -41 185 -189 336
-381 386 -83 22 -1730 21 -1811 -1z m1455 -175 c68 -25 122 -109 123 -190 0
-61 -35 -126 -89 -164 -37 -26 -51 -30 -109 -30 -77 0 -114 20 -162 87 -92
126 1 307 157 308 28 0 64 -5 80 -11z m-688 -334 c48 -38 46 -38 113 -39 34
-1 54 -7 69 -23 34 -34 19 -53 -43 -53 -29 0 -104 -9 -167 -20 -63 -11 -122
-18 -132 -15 -9 3 -61 10 -115 14 -102 9 -149 23 -158 48 -6 15 -5 16 75 31
31 6 99 29 150 51 118 51 150 52 208 6z m-549 -195 c-6 -11 -13 -20 -15 -20
-3 0 -5 9 -5 20 0 11 7 20 15 20 13 0 14 -4 5 -20z m-90 -175 c12 -14 11 -23
-9 -60 -21 -39 -25 -42 -42 -32 -18 11 -25 40 -20 77 1 8 2 27 2 43 l0 27 28
-19 c15 -11 34 -27 41 -36z m-50 -120 c11 -13 10 -14 -4 -9 -9 3 -16 10 -16
15 0 13 6 11 20 -6z m243 -377 c11 -10 25 -18 31 -18 19 -1 -27 -30 -47 -30
-13 0 -17 5 -13 16 3 8 2 12 -4 9 -12 -7 -13 19 -3 55 6 22 8 23 11 5 3 -11
14 -28 25 -37z m172 -218 c-3 -5 -16 -10 -28 -9 -21 0 -21 1 -2 9 28 12 37 12
30 0z"/>
<path d="M2497 1761 c3 -12 11 -17 19 -14 18 7 13 27 -9 31 -11 2 -14 -2 -10
-17z"/>
<path d="M2311 1720 c-2 -23 -3 -24 -15 -7 -17 22 -26 22 -26 -1 0 -28 -11
-34 -26 -14 -12 15 -13 13 -14 -19 0 -25 -8 -43 -27 -61 -53 -50 -128 -64
-142 -26 -8 21 -8 21 -15 -6 l-7 -28 -97 7 c-152 10 -172 14 -172 36 0 24 -20
25 -21 2 0 -10 -5 -2 -11 17 l-10 35 -12 -35 c-10 -32 -15 -35 -71 -45 -76
-14 -127 -41 -193 -100 l-52 -47 -12 29 -12 28 -4 -33 c-2 -19 -2 -35 0 -36 2
-1 68 1 148 4 80 3 204 3 275 -1 138 -7 335 -42 372 -65 12 -8 33 -14 45 -14
13 0 28 -4 34 -8 7 -4 -80 -7 -193 -7 -168 0 -199 2 -176 12 15 7 37 12 48 13
36 1 -5 17 -64 24 -77 10 -335 8 -401 -3 -47 -8 -57 -7 -68 7 -11 15 -14 15
-22 2 -5 -8 -10 -18 -10 -22 0 -5 -11 -8 -25 -8 -32 0 -32 -18 0 -26 21 -5 23
-9 14 -26 -8 -16 -8 -19 1 -13 9 6 9 2 0 -14 -9 -18 -9 -26 2 -39 11 -13 11
-15 -3 -10 -14 5 -45 -30 -48 -54 -1 -5 -4 -7 -8 -5 -5 1 -7 5 -5 10 1 4 -4
23 -12 41 -8 19 -13 46 -12 59 4 33 -18 75 -29 57 -9 -15 -16 -50 -18 -97 -1
-17 -5 -29 -9 -27 -9 6 -32 -36 -24 -43 3 -3 -2 -13 -11 -21 -15 -15 -13 -17
18 -24 19 -4 43 -4 54 -1 29 9 87 5 98 -6 7 -7 17 -6 30 1 22 11 87 17 87 7 0
-3 13 -4 29 -1 l29 4 -13 47 c-15 54 -26 111 -21 111 2 0 23 -7 47 -16 24 -8
57 -13 72 -10 15 3 26 2 22 -3 -12 -20 287 -76 461 -87 122 -8 138 -14 103
-43 -20 -18 -22 -22 -9 -31 8 -6 26 -8 39 -5 14 4 27 1 32 -7 6 -10 15 -10 39
-1 l32 12 -18 -26 c-16 -25 -16 -27 2 -40 11 -8 29 -11 43 -8 19 5 29 1 42
-16 l17 -23 38 26 c30 22 41 25 62 17 31 -12 62 -3 62 19 0 9 -9 31 -20 49
-12 20 -15 35 -9 38 5 4 7 15 4 26 -5 15 0 20 24 25 40 8 41 37 4 59 l-28 16
28 -4 27 -4 0 214 0 215 -27 -7 c-16 -3 -55 -17 -88 -30 -67 -28 -82 -24 -42
10 32 28 34 35 9 35 -11 0 -24 10 -30 23 -9 18 -11 19 -11 4 -1 -25 -21 -11
-22 16 0 19 -2 19 -11 -5 -5 -16 -17 -28 -27 -28 -9 0 -22 12 -28 28 l-11 27
-1 -25z m85 -409 c-12 -19 -24 -12 -19 10 4 13 9 17 15 11 6 -6 7 -15 4 -21z
m133 0 c-3 -6 -10 -7 -18 -2 -7 5 -10 14 -6 21 9 14 29 -2 24 -19z m-1068 -52
c-2 -13 -5 -31 -6 -39 -2 -8 -4 -23 -4 -32 -1 -10 -5 -18 -9 -18 -4 0 -8 8 -9
18 -1 26 -10 59 -22 81 -13 23 2 32 34 21 14 -5 19 -15 16 -31z m909 11 c0 -5
-7 -10 -16 -10 -8 0 -12 5 -9 10 3 6 10 10 16 10 5 0 9 -4 9 -10z m166 -37
c-1 -14 -7 -28 -15 -31 -10 -3 -12 0 -8 12 4 10 7 24 7 32 0 8 4 14 9 14 4 0
8 -12 7 -27z m-126 -36 c0 -20 -25 1 -28 24 -2 23 -2 23 13 5 8 -11 15 -24 15
-29z m-43 11 c-3 -8 -6 -5 -6 6 -1 11 2 17 5 13 3 -3 4 -12 1 -19z m-32 -88
c18 -19 17 -20 -3 -20 -15 0 -22 6 -22 20 0 11 2 20 3 20 2 0 12 -9 22 -20z"/>
<path d="M70 1511 c0 -11 -5 -23 -11 -26 -6 -4 -8 -14 -5 -22 3 -8 1 -23 -4
-34 -8 -13 -7 -19 0 -19 6 0 3 -12 -7 -26 -16 -25 -16 -27 2 -40 17 -12 17
-14 2 -14 -26 0 -32 4 -29 18 2 6 -2 20 -7 30 -8 12 -10 -7 -11 -71 0 -67 3
-88 13 -84 6 2 12 10 12 17 0 7 6 15 13 18 15 5 16 -10 2 -24 -8 -8 -6 -15 4
-23 12 -10 19 -9 38 3 18 12 32 13 55 7 28 -8 31 -7 28 11 -3 11 -9 26 -15 33
-6 7 -8 19 -4 28 3 8 1 18 -5 22 -6 3 -11 15 -11 26 0 11 -7 31 -16 44 -9 14
-12 25 -6 25 13 0 10 33 -8 83 -15 40 -30 49 -30 18z"/>
<path d="M1300 1456 c0 -8 -3 -21 -6 -30 -4 -11 -1 -16 10 -16 18 0 23 45 6
55 -5 3 -10 0 -10 -9z"/>
<path d="M1256 1432 c-4 -13 -5 -26 -2 -29 10 -11 18 4 14 29 l-4 23 -8 -23z"/>
<path d="M1337 1431 c-3 -14 0 -21 9 -21 16 0 18 9 5 28 -6 10 -10 9 -14 -7z"/>
<path d="M1220 1416 c0 -9 5 -16 10 -16 6 0 10 4 10 9 0 6 -4 13 -10 16 -5 3
-10 -1 -10 -9z"/>
<path d="M1085 861 l0 -39 55 5 c141 13 160 17 150 33 -6 10 -25 14 -64 13
-31 -1 -58 2 -61 7 -3 5 -19 5 -35 0 -22 -6 -32 -5 -38 6 -5 9 -8 0 -7 -25z
m192 -7 c-3 -3 -12 -4 -19 -1 -8 3 -5 6 6 6 11 1 17 -2 13 -5z"/>
<path d="M2550 870 c-19 -11 -61 -31 -94 -45 -32 -14 -57 -27 -55 -29 6 -5
186 -76 193 -76 3 0 6 38 6 85 0 47 -3 85 -7 85 -5 0 -24 -9 -43 -20z"/>
<path d="M1316 854 c-4 -10 2 -14 19 -14 30 0 33 16 6 23 -12 3 -22 -1 -25 -9z"/>
<path d="M27 532 c-20 -3 -27 -9 -27 -25 0 -12 4 -27 8 -33 16 -25 366 -113
542 -135 190 -25 563 -11 595 22 7 7 7 10 0 9 -5 -2 -19 -2 -30 0 -19 1 -19 2
-1 9 14 6 9 10 -25 20 -24 7 -52 17 -61 22 -10 5 -27 9 -38 9 -11 0 -20 5 -20
10 0 6 -9 10 -20 10 -10 0 -45 7 -77 15 -32 9 -69 17 -83 19 -14 2 -52 9 -85
15 -126 22 -257 32 -450 34 -110 1 -212 1 -228 -1z"/>
<path d="M1210 300 c-45 -8 -570 -14 -954 -10 l-198 2 23 -43 c35 -63 125
-149 195 -186 120 -64 104 -63 1021 -63 565 0 849 4 885 11 133 27 285 135
337 237 12 24 21 45 19 47 -8 7 -1289 12 -1328 5z m483 -17 c-35 -2 -91 -2
-125 0 -35 2 -7 3 62 3 69 0 97 -1 63 -3z"/>
</g>
</svg>
